<?xml version="1.0" encoding="utf-8"?>
<!-- Generator: Adobe Illustrator 25.1.0, SVG Export Plug-In . SVG Version: 6.00 Build 0)  -->
<svg version="1.1" id="Layer_1" xmlns="http://www.w3.org/2000/svg" xmlns:xlink="http://www.w3.org/1999/xlink" x="0px" y="0px"
	 viewBox="0 0 260 260" style="enable-background:new 0 0 260 260;" xml:space="preserve">
<style type="text/css">
	.st0{fill-rule:evenodd;clip-rule:evenodd;fill:#C92123;}
	.st1{fill-rule:evenodd;clip-rule:evenodd;fill:#FEFEFE;}
</style>
<rect y="-0.16" class="st0" width="260.22" height="260.16"/>
<path class="st1" d="M162.62,54.09V166.8H90.16c3.8-4.47,6.71-9.84,8.95-16.33c2.24-6.49,3.58-13.87,4.47-22.36
	c0.89-8.72,1.34-19.01,1.34-30.86V54.09H162.62z M43.42,166.8V233h30.19v-38.69h106.23V233h29.97v-66.2h-14.98V26.59H73.61v70.67
	c0,9.39-0.45,17.89-1.12,24.82c-0.45,7.16-1.57,13.42-2.91,18.79c-1.12,5.37-2.91,10.29-5.14,14.54c-2.24,4.02-4.92,8.05-8.27,11.4
	H43.42z"/>
</svg>
