<svg width="483" height="69" viewBox="0 0 483 69" fill="none" xmlns="http://www.w3.org/2000/svg">
<path d="M64.0458 0.184326H68.4004V68.8157H0.263916V0.184326H64.0458ZM64.8143 3.7965H3.85005V65.2036H64.8143V3.7965Z" fill="#FEFEFE"/>
<path fill-rule="evenodd" clip-rule="evenodd" d="M44.066 41.7244C44.066 41.4664 44.066 41.2084 44.3222 40.9504C44.3222 40.6924 44.5783 40.6924 44.5783 40.6924L44.8345 40.4344L46.3714 39.9183V39.1443L45.0906 39.6603C44.8345 39.9183 44.5783 39.9183 44.3222 40.1763C44.066 40.4344 44.066 40.6924 43.8099 40.9504C43.8099 41.2084 43.8099 41.4664 43.5537 41.7244C43.5537 41.9824 43.5537 42.2404 43.5537 42.4985C43.5537 42.7565 43.5537 43.0145 43.5537 43.2725C43.5537 43.5305 43.5537 43.7885 43.8099 44.0465C43.8099 44.3045 44.066 44.5626 44.3222 44.5626C44.5783 44.5626 44.5783 44.8206 44.8345 44.8206C45.0906 44.8206 45.0906 44.8206 45.3468 44.8206C45.6029 44.8206 45.8591 44.8206 46.1152 44.5626C46.3714 44.3045 46.6275 44.3045 46.6275 44.0465C46.8837 43.7885 46.8837 43.5305 46.8837 43.0145C46.8837 42.4985 46.6275 41.9824 46.3714 41.7244C46.1152 41.4664 45.8591 41.2084 45.3468 41.2084C45.0906 41.2084 44.8345 41.2084 44.8345 41.4664C44.3222 41.2084 44.3222 41.4664 44.066 41.7244ZM45.0906 44.0465C44.8345 44.0465 44.8345 44.0465 44.5783 43.7885C44.5783 43.7885 44.3222 43.5305 44.3222 43.2725C44.3222 43.0145 44.3222 43.0145 44.3222 42.7565C44.3222 42.4985 44.3222 42.4985 44.3222 42.2404C44.3222 41.9824 44.3222 41.9824 44.5783 41.7244C44.5783 41.7244 44.8345 41.4664 45.0906 41.4664C45.3468 41.4664 45.3468 41.4664 45.6029 41.7244C45.6029 41.7244 45.8591 41.9824 45.8591 42.2404C45.8591 42.4985 45.8591 42.4985 45.8591 42.7565C45.8591 43.0145 45.8591 43.0145 45.8591 43.2725C45.8591 43.5305 45.8591 43.5305 45.6029 43.7885C45.3468 43.7885 45.0906 44.0465 45.0906 44.0465Z" fill="#FEFEFE"/>
<path fill-rule="evenodd" clip-rule="evenodd" d="M36.1253 44.5624L36.3814 42.2403C36.3814 42.4983 36.3814 42.4983 36.3814 42.7563C36.3814 43.0143 36.3814 43.0143 36.3814 43.2724L36.6376 44.3044H37.1499L37.6622 43.2724C37.6622 43.0143 37.6622 43.0143 37.9183 42.7563C37.9183 42.4983 37.9183 42.4983 37.9183 42.2403V44.5624H38.4306L38.1745 41.2083H37.6622L37.1499 42.7563C37.1499 42.7563 37.1499 43.0143 37.1499 43.2724C37.1499 43.5304 37.1499 43.5304 37.1499 43.5304V43.2724C37.1499 43.0143 37.1499 43.0143 37.1499 42.7563L36.6376 41.2083H36.1253L35.3568 44.3044L36.1253 44.5624Z" fill="#FEFEFE"/>
<path fill-rule="evenodd" clip-rule="evenodd" d="M42.529 43.0145C42.529 43.0145 42.7852 43.0145 42.529 43.0145C42.7852 43.0145 42.7852 43.0145 42.529 43.0145C42.7852 42.7565 42.7852 42.4985 42.7852 42.4985C42.7852 42.2405 42.7852 42.2405 42.7852 41.9824C42.7852 41.7244 42.7852 41.7244 42.529 41.4664C42.529 41.2084 42.2729 41.2084 42.0167 40.9504C41.7606 40.9504 41.5044 40.6924 41.2483 40.6924C40.736 40.6924 40.2237 40.9504 39.9675 41.2084C39.7114 41.4664 39.4552 41.9825 39.4552 42.7565C39.4552 43.0145 39.4552 43.0145 39.4552 43.2725C39.4552 43.5305 39.4552 43.7885 39.7114 43.7885C39.7114 44.0466 39.9675 44.0466 40.2237 44.3046C40.4798 44.5626 40.736 44.5626 41.2483 44.5626C41.5044 44.5626 41.7606 44.5626 41.7606 44.5626C42.0167 44.5626 42.0167 44.5626 42.2729 44.3046L42.0167 43.7885H41.7606C41.7606 43.7885 41.5044 43.7885 41.2483 43.7885C40.9921 43.7885 40.736 43.7885 40.736 43.5305C40.736 43.2725 40.4798 43.2725 40.4798 42.7565L42.529 43.0145ZM40.736 42.2405C40.736 41.9825 40.736 41.7244 40.9921 41.7244C40.9921 41.4664 41.2483 41.4664 41.5044 41.4664C41.7606 41.4664 41.7606 41.4664 41.7606 41.4664L42.0167 41.7244C42.0167 41.7244 42.0167 41.7244 42.0167 41.9824V42.2405H40.736Z" fill="#FEFEFE"/>
<path fill-rule="evenodd" clip-rule="evenodd" d="M49.9575 43.0145C50.2136 43.0145 50.2136 43.0145 49.9575 43.0145C50.2136 42.7565 50.2136 42.4985 50.2136 42.4985C50.2136 42.4985 50.2136 42.2405 50.2136 41.9824C50.2136 41.7244 50.2136 41.7244 49.9575 41.4664C49.9575 41.2084 49.7013 41.2084 49.4452 40.9504C49.189 40.9504 48.9329 40.6924 48.6767 40.6924C48.1644 40.6924 47.9083 40.9504 47.396 41.2084C47.1398 41.4664 46.8837 41.9825 46.8837 42.7565C46.8837 43.0145 46.8837 43.0145 46.8837 43.2725C46.8837 43.5305 46.8837 43.7885 47.1398 43.7885C47.1398 44.0466 47.396 44.0466 47.6521 44.3046C47.9083 44.5626 48.1644 44.5626 48.6767 44.5626C48.9329 44.5626 49.189 44.5626 49.189 44.5626C49.4452 44.5626 49.4452 44.5626 49.7013 44.3046L49.4452 43.7885H49.189C49.189 43.7885 48.9329 43.7885 48.6767 43.7885C48.4206 43.7885 48.1644 43.7885 48.1644 43.5305C48.1644 43.2725 47.9083 43.2725 47.9083 42.7565L49.9575 43.0145ZM48.1644 42.4985C48.1644 42.2405 48.1644 41.9824 48.4206 41.9824C48.4206 41.7244 48.6767 41.7244 48.9329 41.7244C49.189 41.7244 49.189 41.7244 49.189 41.7244L49.4452 41.9824C49.4452 41.9824 49.4452 41.9825 49.4452 42.2405V42.4985H48.1644Z" fill="#FEFEFE"/>
<path fill-rule="evenodd" clip-rule="evenodd" d="M52.7752 41.7243V44.5624H53.5436V41.2083H51.2383V41.4663C51.2383 41.7243 51.2383 41.7243 51.2383 41.9823C51.2383 42.2403 51.2383 42.4983 51.2383 42.7563C51.2383 43.0143 51.2383 43.2724 51.2383 43.2724C51.2383 43.5304 51.2383 43.5304 50.9821 43.7884L50.726 44.0464L50.9821 44.5624H51.2383C51.4944 44.5624 51.4944 44.5624 51.7506 44.3044C52.0067 44.3044 52.0067 44.0464 52.2629 43.7884C52.2629 43.5304 52.2629 43.2724 52.519 43.0143C52.519 42.7563 52.519 42.4983 52.519 42.2403C52.519 41.9823 52.519 41.7243 52.519 41.7243H52.7752Z" fill="#FEFEFE"/>
<path fill-rule="evenodd" clip-rule="evenodd" d="M55.849 44.5626C56.1052 44.5626 56.3613 44.5626 56.3613 44.5626C56.6175 44.5626 56.8736 44.5626 56.8736 44.3046C57.1298 44.0466 57.1298 44.0466 57.1298 43.7885C57.1298 43.5305 57.1298 43.5305 57.1298 43.2725C57.1298 43.0145 57.1298 43.0145 57.1298 42.7565C57.1298 42.4985 56.8736 42.4985 56.8736 42.2405C56.6175 41.9825 56.6175 41.9824 56.3613 41.9824C56.1052 41.9824 55.849 41.9824 55.849 41.9824H55.3367V40.6924H54.8244H54.5682V44.0466L55.849 44.5626ZM55.5929 43.0145H56.1052C56.1052 43.0145 56.1052 43.0145 56.3613 43.0145H56.6175V43.2725C56.6175 43.5305 56.6175 43.5305 56.3613 43.5305C56.1052 43.5305 56.1052 43.5305 55.849 43.5305H55.5929V43.0145Z" fill="#FEFEFE"/>
<path fill-rule="evenodd" clip-rule="evenodd" d="M16.6576 37.8542L17.4261 40.4344H13.84C15.1207 43.7885 22.8053 42.7565 27.1599 43.0145C22.5492 42.4985 21.5245 39.1443 21.0122 38.1123L16.6576 37.8542Z" fill="#FEFEFE"/>
<path fill-rule="evenodd" clip-rule="evenodd" d="M25.1107 25.9856H25.3668C25.623 25.9856 25.623 25.9856 25.623 26.2436C25.623 26.5016 25.623 26.5016 25.623 26.5016H25.8792C25.8792 26.5016 25.8792 26.5016 25.8792 26.2436C25.8792 25.9856 25.8792 25.9856 25.623 25.7276C25.8792 25.7276 25.8792 25.4696 25.8792 25.2116C25.8792 24.9536 25.8791 24.6956 25.3668 24.6956H24.5984V26.2436H24.8545L25.1107 25.9856ZM25.1107 25.2116H25.623C25.8792 25.2116 25.8792 25.4696 25.8792 25.4696C25.8792 25.7276 25.8792 25.7276 25.623 25.7276H25.1107V25.2116Z" fill="#FEFEFE"/>
<path fill-rule="evenodd" clip-rule="evenodd" d="M24.0861 25.7275C24.0861 25.4695 24.3423 24.9534 24.5984 24.6954C24.8546 24.4374 25.1107 24.1794 25.623 24.1794C25.8792 24.1794 26.3915 24.4374 26.6476 24.6954C26.9038 24.9534 27.1599 25.2114 27.1599 25.7275C27.1599 26.5015 26.6476 27.0175 25.8792 27.0175C24.8546 27.2756 24.0861 26.5015 24.0861 25.7275ZM24.3423 24.6954C23.83 24.9534 23.83 25.4695 23.83 25.7275C23.83 26.7595 24.5984 27.5336 25.623 27.5336C26.6476 27.5336 27.4161 26.7595 27.4161 25.7275C27.4161 25.2114 27.1599 24.6954 26.9038 24.4374C26.6476 24.1794 26.1353 23.9214 25.623 23.9214C25.1107 24.1794 24.5984 24.1794 24.3423 24.6954Z" fill="#FEFEFE"/>
<path fill-rule="evenodd" clip-rule="evenodd" d="M26.1353 36.8221H15.1207L15.8892 39.4022H13.3277L11.7908 34.5H13.5838H14.0961L16.4015 27.0176H14.8646L14.0961 24.4375H17.17H17.9384H18.7069H19.7315H20.4999L23.5738 34.5H24.8545L26.1353 36.8221ZM16.9138 34.242H21.5246L19.2192 27.0176L16.9138 34.242Z" fill="#FEFEFE"/>
<path fill-rule="evenodd" clip-rule="evenodd" d="M44.3221 28.0497C45.3467 25.9856 47.3959 24.6955 49.9575 24.6955C53.2874 24.6955 56.1051 27.5337 56.1051 30.8878C56.1051 34.242 53.2874 37.0801 49.9575 37.0801C46.8836 37.0801 44.5783 35.016 44.066 32.1779C43.2975 33.4679 41.7606 34.5 39.9675 34.5H39.1991V37.0801H36.6376V34.5H35.6129C35.1006 34.5 34.5883 34.5 34.076 34.242C34.076 34.758 34.3322 35.274 34.3322 35.7901C34.3322 39.1442 31.5145 41.9824 28.1845 41.9824C25.623 41.9824 23.3177 40.4343 22.5492 38.1122H25.3669C26.1353 38.8862 27.1599 39.4022 28.1845 39.4022C29.7215 39.4022 31.2584 38.3702 31.7707 36.8221H27.6722L26.9038 34.242H31.7707C31.2584 32.6939 29.9776 31.9199 28.4407 31.9199C27.1599 31.9199 26.1353 32.4359 25.623 33.4679L24.8546 30.8878C25.8792 30.1138 27.1599 29.5978 28.6968 29.5978C29.7215 29.5978 30.4899 29.8558 31.2584 30.1138C31.2584 29.8558 31.2584 29.5978 31.2584 29.5978C31.2584 28.5657 31.5145 27.7917 32.0268 27.0176H30.4899L29.7214 24.4375H36.1252H40.2237H40.736C42.2729 24.6955 43.8098 26.2436 44.3221 28.0497ZM46.1152 30.6298C46.1152 32.6939 47.6521 34.242 49.7013 34.242C51.7505 34.242 53.2874 32.6939 53.2874 30.6298C53.2874 28.5657 51.7505 27.0176 49.7013 27.0176C47.9082 27.0176 46.1152 28.8237 46.1152 30.6298ZM38.9429 27.0176V31.9199H39.7114C40.9921 31.9199 42.2729 30.8878 42.2729 29.3397C42.2729 28.0497 41.2483 26.7596 39.7114 26.7596L38.9429 27.0176ZM36.3814 31.9199V27.0176H35.3568C34.076 27.0176 32.7953 28.0497 32.7953 29.5978C32.7953 30.8878 33.8199 32.1779 35.3568 32.1779L36.3814 31.9199Z" fill="#FEFEFE"/>
<path fill-rule="evenodd" clip-rule="evenodd" d="M117.838 9.73089V46.8847H94.0157C95.2965 45.3367 96.3211 43.5306 96.8334 41.4665C97.6018 39.4024 98.1141 36.8222 98.3703 33.9841C98.6264 31.146 98.8826 27.7918 98.8826 23.9216V9.73089H117.838ZM78.9027 46.8847V68.8158H88.8926V56.1732H123.729V68.8158H133.463V46.8847H128.596V0.700439H88.6365V23.9216C88.6365 27.0178 88.3803 29.8559 88.3803 32.178C88.1242 34.5001 87.868 36.5642 87.3557 38.3703C87.0996 40.1764 86.3311 41.7245 85.5627 43.2726C84.7942 44.5626 84.0258 45.8527 82.745 47.1428H78.9027V46.8847Z" fill="#FEFEFE"/>
<path fill-rule="evenodd" clip-rule="evenodd" d="M148.832 39.6603C148.832 42.7565 149.857 45.0786 151.65 46.3686C153.443 47.6587 156.773 48.4327 161.384 48.4327C163.945 48.4327 165.994 48.1747 167.531 47.6587C169.068 47.1427 170.349 46.3686 171.374 45.3366C172.142 44.0465 172.91 42.4984 173.167 40.4343C173.423 38.3702 173.679 35.7901 173.679 32.4359H152.418V24.6956H173.679C173.679 21.3414 173.423 18.7613 173.167 16.6972C172.91 14.8911 172.142 13.085 171.374 12.0529C170.605 10.7629 169.324 9.98882 167.787 9.47279C166.251 8.95677 164.201 8.69876 161.384 8.69876C158.054 8.69876 155.748 8.95677 153.955 9.73081C152.162 10.2468 151.138 11.5369 150.369 12.827C149.601 14.375 149.088 16.4391 148.832 19.2773H138.842C139.355 14.633 140.123 11.0209 141.404 8.18273C142.685 5.6026 144.99 3.5385 148.064 2.24843C151.138 0.958368 155.748 0.184326 161.64 0.184326C167.275 0.184326 171.886 0.958365 175.216 2.76446C178.546 4.57055 180.851 7.15068 182.132 11.2789C183.413 15.1491 184.181 20.3093 184.181 27.2757C184.181 33.726 183.925 38.6282 183.157 42.4984C182.644 46.3686 181.364 49.2068 179.827 51.2709C178.29 53.335 175.984 54.8831 173.167 55.6571C170.349 56.4311 166.507 56.9472 161.64 56.9472C156.004 56.9472 151.65 56.4311 148.064 55.1411C144.734 54.109 142.172 52.3029 140.635 49.9808C139.098 47.6587 138.33 44.5626 138.33 40.9504V38.3702H148.576V39.6603H148.832Z" fill="#FEFEFE"/>
<path fill-rule="evenodd" clip-rule="evenodd" d="M218.249 40.6922H211.333C208.772 40.6922 206.979 40.1762 205.442 39.4022C203.905 38.6281 202.88 37.0801 202.112 35.274C201.343 33.4679 201.087 30.8877 201.087 27.7916C201.087 24.6954 201.343 22.1153 202.112 20.3092C202.88 18.5031 203.905 16.9551 205.442 16.181C206.979 15.407 208.772 14.8909 211.333 14.8909H218.249V40.6922ZM218.249 55.915H228.752V49.7227H235.412C240.279 49.7227 244.377 48.9486 247.451 47.4006C250.525 45.8525 252.83 43.5304 254.367 40.4342C255.904 37.3381 256.672 32.9519 256.672 28.0496C256.672 24.1794 256.16 20.8252 255.392 17.9871C254.623 15.149 253.342 13.0849 251.549 11.2788C249.756 9.47268 247.707 8.18261 245.145 7.40857C242.584 6.63454 239.254 6.11851 235.668 6.11851H229.008V0.958252H218.506V6.11851H212.614C208.772 6.11851 205.698 6.63454 203.137 7.40857C200.319 8.18261 198.27 9.47268 196.477 11.2788C194.683 13.0849 193.403 15.407 192.634 18.2451C191.866 21.0833 191.354 24.4374 191.354 28.3076C191.354 33.4679 192.122 37.5961 193.659 40.6922C195.196 44.0464 197.501 46.3685 200.575 47.6586C203.649 49.2067 207.491 49.9807 212.358 49.9807H219.018V55.915H218.249ZM235.668 14.8909C238.229 14.8909 240.279 15.407 241.559 16.181C243.096 16.9551 244.121 18.5031 244.633 20.3092C245.402 22.1153 245.658 24.6954 245.658 27.7916C245.658 32.4358 244.889 35.79 243.352 37.5961C241.815 39.6602 239.254 40.4342 235.412 40.4342H228.752V14.6329H235.668V14.8909Z" fill="#FEFEFE"/>
<path fill-rule="evenodd" clip-rule="evenodd" d="M274.091 17.7292C274.347 15.4071 275.115 13.343 275.884 12.3109C276.652 11.0209 277.933 10.2468 279.47 9.98882C281.007 9.73081 283.312 9.47279 286.386 9.47279C289.46 9.47279 291.765 9.73081 293.302 9.98882C294.839 10.2468 296.12 11.2789 296.888 12.3109C297.657 13.601 298.425 15.4071 298.681 17.9872C298.937 20.5673 299.194 23.9215 299.194 28.5657C299.194 33.21 298.937 36.5642 298.681 38.8863C298.425 41.2084 297.913 43.2725 296.888 44.5625C296.12 45.8526 294.839 46.6266 293.046 47.1427C291.509 47.6587 289.204 47.9167 286.13 47.9167C283.312 47.9167 281.007 47.6587 279.214 47.4007C277.677 46.8847 276.396 46.1106 275.628 44.8206C274.859 43.5305 274.091 41.7244 273.834 39.1443C273.578 36.8222 273.322 33.21 273.322 28.5657C273.578 23.6635 273.834 20.0513 274.091 17.7292ZM263.845 42.4984C264.357 46.1106 265.638 49.2068 267.175 51.2709C268.968 53.335 271.017 54.8831 274.091 55.6571C277.164 56.4311 281.007 56.9472 286.13 56.9472C290.997 56.9472 294.839 56.4311 297.657 55.6571C300.474 54.8831 303.036 53.335 304.573 51.2709C306.366 49.2068 307.647 46.3686 308.415 42.4984C309.183 38.6282 309.44 33.726 309.44 27.2757C309.44 21.8574 309.183 17.4712 308.415 14.117C307.647 10.7629 306.366 7.92472 304.573 5.86061C302.78 3.79651 300.474 2.50644 297.657 1.47439C294.583 0.700352 290.741 0.184326 286.13 0.184326C281.263 0.184326 277.421 0.700352 274.603 1.47439C271.529 2.24843 269.224 3.79651 267.687 5.86061C265.894 7.92472 264.613 10.5048 264.101 13.859C263.332 17.2132 263.076 21.8574 263.076 27.2757C263.076 33.726 263.332 38.6282 263.845 42.4984Z" fill="#FEFEFE"/>
<path fill-rule="evenodd" clip-rule="evenodd" d="M335.567 16.6972C335.823 17.7293 336.079 18.7613 336.592 19.2774C337.104 19.7934 337.616 20.3094 338.641 20.5674C339.409 20.8254 340.69 20.8254 342.227 20.8254C343.764 20.8254 345.045 20.8254 345.813 20.5674C346.582 20.3094 347.35 19.7934 347.862 19.2774C348.375 18.5033 348.631 17.7293 348.887 16.6972C349.143 15.6652 349.143 13.8591 349.143 11.795C349.143 9.73089 349.143 7.9248 348.887 6.89275C348.631 5.86069 348.375 4.82864 348.119 4.31262C347.606 3.79659 347.094 3.28057 346.069 3.02255C345.301 2.76454 344.02 2.76454 342.483 2.76454C340.946 2.76454 339.665 2.76454 338.641 3.02255C337.872 3.28057 337.104 3.79659 336.592 4.31262C336.079 4.82864 335.823 5.86069 335.823 6.89275C335.567 7.9248 335.567 9.73089 335.567 11.795C335.311 13.8591 335.311 15.6652 335.567 16.6972ZM333.262 6.11871C333.518 4.57063 334.03 3.53858 334.799 2.76454C335.567 1.9905 336.336 1.47447 337.616 1.21646C338.641 0.958449 340.434 0.700439 342.227 0.700439C344.276 0.700439 345.813 0.958449 346.838 1.21646C347.862 1.47447 348.887 1.9905 349.655 2.76454C350.424 3.53858 350.68 4.57063 351.192 6.11871C351.449 7.66679 351.705 9.47287 351.705 12.053C351.705 14.3751 351.449 16.4392 351.192 17.9873C350.936 19.5354 350.424 20.5674 349.655 21.3415C348.887 22.1155 348.119 22.6315 346.838 22.8895C345.557 23.1476 344.02 23.4056 342.227 23.4056C340.178 23.4056 338.641 23.1476 337.616 22.8895C336.592 22.6315 335.567 22.1155 334.799 21.3415C334.03 20.5674 333.774 19.5354 333.262 17.9873C333.006 16.4392 332.749 14.6331 332.749 12.053C332.749 9.47287 333.006 7.40877 333.262 6.11871Z" fill="#FEFEFE"/>
<path fill-rule="evenodd" clip-rule="evenodd" d="M361.438 5.60264C360.158 5.60264 359.133 5.86065 358.365 6.11867C357.596 6.63469 357.084 7.15072 356.828 7.92475C356.572 8.69879 356.315 9.98886 356.315 11.2789C356.315 12.827 356.572 13.8591 356.828 14.6331C357.084 15.4071 357.596 16.1812 358.365 16.4392C359.133 16.9552 360.158 16.9552 361.438 16.9552H364V5.60264H361.438ZM366.562 17.4712H369.123C370.916 17.4712 372.453 16.9552 373.221 15.9232C373.99 14.8911 374.502 13.343 374.502 11.2789C374.502 9.21482 374.246 7.66674 373.221 6.63469C372.453 5.60264 371.172 5.08661 369.123 5.08661H366.562V17.4712ZM366.562 3.28053H369.379C371.172 3.28053 372.453 3.53854 373.478 4.05456C374.502 4.57059 375.271 5.34463 376.039 6.63469C376.551 7.92475 376.808 9.47284 376.808 11.2789C376.808 13.343 376.551 14.8911 376.039 16.1812C375.527 17.4712 374.758 18.2453 373.478 18.7613C372.453 19.2773 370.916 19.5353 369.379 19.5353H366.562V22.8895H364V19.5353H361.182C359.389 19.5353 358.109 19.2773 357.084 18.7613C356.059 18.2453 355.291 17.4712 354.522 16.1812C354.01 14.8911 353.754 13.343 353.754 11.2789C353.754 9.21482 354.01 7.66674 354.522 6.37668C355.035 5.08661 355.803 4.31257 357.084 3.79655C358.109 3.28052 359.645 3.02251 361.182 3.02251H364V0.442383H366.562V3.28053Z" fill="#FEFEFE"/>
<path fill-rule="evenodd" clip-rule="evenodd" d="M380.138 22.8895H383.98L396.787 2.50653V22.8895H399.093V0.700439H395.251L382.699 21.3415V0.700439H380.138V22.8895Z" fill="#FEFEFE"/>
<path fill-rule="evenodd" clip-rule="evenodd" d="M417.536 18.2453C417.28 19.0194 417.023 19.5354 416.511 19.7934C415.999 20.0514 415.487 20.5674 414.718 20.5674C413.95 20.8254 412.925 20.8254 411.388 20.8254C409.851 20.8254 409.083 20.8254 408.314 20.5674C407.546 20.3094 406.777 19.7934 406.521 19.2774C406.009 18.5033 405.753 17.7293 405.497 16.4392C405.24 15.4072 405.24 13.6011 405.24 11.795C405.24 9.73089 405.24 8.18281 405.497 7.15076C405.753 5.8607 406.009 5.08666 406.521 4.31262C407.034 3.53858 407.546 3.28057 408.314 3.02255C409.083 2.76454 410.107 2.76454 411.388 2.76454C413.181 2.76454 414.462 3.02256 415.23 3.28057C415.999 3.53858 416.511 4.05461 416.767 4.82865C417.023 5.60269 417.28 6.63473 417.536 7.9248H419.841C419.841 6.63473 419.585 5.34467 419.329 4.57063C419.073 3.79659 418.56 3.02255 418.048 2.50653C417.536 1.9905 416.511 1.47448 415.487 1.21646C414.462 0.958449 412.925 0.700439 411.132 0.700439C409.339 0.700439 408.058 0.958449 406.777 1.21646C405.753 1.47448 404.728 2.24852 404.216 3.02255C403.447 3.79659 403.191 5.08666 402.679 6.37672C402.423 7.9248 402.167 9.73089 402.167 12.053C402.167 14.3751 402.423 16.4392 402.679 17.7293C402.935 19.2774 403.447 20.3094 404.216 21.0835C404.984 21.8575 405.753 22.3735 406.777 22.6315C407.802 22.8896 409.339 23.1476 411.132 23.1476C413.437 23.1476 415.23 22.8895 416.511 22.3735C417.792 21.8575 418.56 21.0835 419.073 20.0514C419.585 19.0194 419.841 17.4713 419.841 15.4072H417.536C417.792 16.6972 417.536 17.4713 417.536 18.2453Z" fill="#FEFEFE"/>
<path fill-rule="evenodd" clip-rule="evenodd" d="M425.477 0.700439H422.915V22.8895H425.477V12.827H438.284V22.8895H440.846V0.700439H438.284V10.5049H425.477V0.700439Z" fill="#FEFEFE"/>
<path fill-rule="evenodd" clip-rule="evenodd" d="M448.786 16.1812L453.653 2.50653L458.52 16.1812H448.786ZM446.481 22.8895L448.274 18.2453H459.545L461.082 22.8895H463.643L455.446 0.700439H451.86L443.919 22.8895H446.481V22.8895Z" fill="#FEFEFE"/>
<path fill-rule="evenodd" clip-rule="evenodd" d="M473.633 12.053C471.84 12.053 470.559 11.795 469.791 11.021C468.766 10.2469 468.51 9.21486 468.51 7.9248C468.51 6.37672 468.766 5.08666 469.535 4.31262C470.047 3.53858 471.072 3.28057 472.608 3.28057H480.549V12.311H473.633V12.053ZM480.293 22.8895H482.855V0.700439H473.121C470.815 0.700439 469.022 1.21647 467.742 2.24852C466.461 3.28057 465.949 4.82865 465.949 7.15076C465.949 8.95685 466.461 10.5049 467.229 11.537C467.998 12.569 469.279 13.3431 470.815 13.6011L465.692 22.8895H468.766L473.633 14.1171H480.549V22.8895H480.293Z" fill="#FEFEFE"/>
<path fill-rule="evenodd" clip-rule="evenodd" d="M333.774 33.9839V56.173H336.336V36.048L344.532 56.173H346.838L355.035 35.79V56.173H357.596V33.9839H353.498L345.557 53.0768L337.872 33.9839H333.774Z" fill="#FEFEFE"/>
<path fill-rule="evenodd" clip-rule="evenodd" d="M364.512 36.048H376.039V33.9839H361.951V56.173H376.039V54.1089H364.512V45.8525H375.527V43.7884H364.512V36.048Z" fill="#FEFEFE"/>
<path fill-rule="evenodd" clip-rule="evenodd" d="M389.607 45.9871C390.896 45.9871 391.669 45.9871 392.442 46.2567C393.216 46.5263 393.474 47.0654 393.731 47.6046C393.989 48.1438 394.247 49.2221 394.247 50.3004C394.247 51.3788 394.247 52.1875 393.989 52.7267C393.731 53.2658 393.216 53.805 392.7 54.0746C392.185 54.3442 391.153 54.6137 390.122 54.6137H382.904V45.9871H389.607ZM395.02 36.0126V33.856H380.326V57.04H390.38C391.927 57.04 393.216 56.7704 394.247 56.2312C395.278 55.6921 395.794 55.1529 396.309 54.0746C396.825 52.9962 397.082 51.9179 397.082 50.3004C397.082 48.6829 396.825 47.335 396.309 46.2567C395.794 45.1784 395.278 44.6392 394.247 44.1001C393.216 43.5609 391.927 43.2913 390.38 43.2913H382.904V35.743H395.02V36.0126Z" fill="white"/>
<path fill-rule="evenodd" clip-rule="evenodd" d="M402.167 36.048H413.95V33.9839H399.605V56.173H413.693V54.1089H402.167V45.8525H413.437V43.7884H402.167V36.048Z" fill="#FEFEFE"/>
<path fill-rule="evenodd" clip-rule="evenodd" d="M434.442 33.9839H418.817V49.9807C418.817 51.0127 418.817 52.0448 418.56 52.5608C418.304 53.0768 418.048 53.5929 417.792 53.5929C417.536 53.8509 416.767 53.8509 416.255 53.8509H415.743V56.173H417.28C418.817 56.173 419.841 55.657 420.61 54.6249C421.122 53.5929 421.634 52.0448 421.634 49.7227V36.306H432.393V56.431H434.954V33.9839H434.442Z" fill="#FEFEFE"/>
<path fill-rule="evenodd" clip-rule="evenodd" d="M448.53 45.5945C449.811 45.5945 450.579 45.5945 451.348 45.8525C452.116 46.1105 452.372 46.6265 452.629 47.1425C452.885 47.6586 452.885 48.6906 452.885 49.7227C452.885 50.7547 452.885 51.5288 452.629 52.0448C452.372 52.5608 451.86 53.0768 451.348 53.3349C450.835 53.5929 449.811 53.8509 448.786 53.8509H441.358V45.5945H448.53ZM439.053 56.173H449.042C450.579 56.173 451.86 55.915 452.885 55.399C453.909 54.8829 454.422 54.3669 454.934 53.3349C455.446 52.3028 455.702 51.2707 455.702 49.7227C455.702 48.1746 455.446 46.8845 454.934 45.8525C454.422 44.8204 453.653 44.3044 452.885 43.7884C451.86 43.2723 450.579 43.0143 449.042 43.0143H441.358V33.9839H438.796V56.173H439.053Z" fill="#FEFEFE"/>
<path d="M322.503 0.442383H320.454V68.5578H322.503V0.442383Z" fill="#FEFEFE"/>
</svg>
