<svg width="25" height="17" viewBox="0 0 25 17" fill="none" xmlns="http://www.w3.org/2000/svg">
<path d="M23.7179 0.166504H1.28208C0.576904 0.166504 0 0.743408 0 1.44853V15.5511C0 16.2562 0.576904 16.8332 1.28208 16.8332H23.718C24.423 16.8332 25 16.2563 25 15.5511V1.44853C25 0.743408 24.4231 0.166504 23.7179 0.166504ZM23.2368 1.12798L13.2375 8.62808C13.0577 8.76489 12.7817 8.85049 12.5 8.84922C12.2182 8.85049 11.9423 8.76489 11.7625 8.62808L1.76313 1.12798H23.2368ZM17.8955 9.12295L23.3442 15.8538C23.3497 15.8605 23.3564 15.8656 23.3622 15.8717H1.63779C1.64355 15.8653 1.65029 15.8605 1.65576 15.8538L7.10449 9.12295C7.27144 8.91655 7.23979 8.61397 7.03301 8.44663C6.82661 8.27969 6.52402 8.31133 6.35703 8.51777L0.961523 15.1829V1.72896L11.1858 9.39722C11.5702 9.68345 12.0377 9.80942 12.4999 9.81069C12.9614 9.80972 13.4294 9.68374 13.814 9.39722L24.0383 1.72896V15.1828L18.6429 8.51777C18.4759 8.31138 18.173 8.27964 17.9669 8.44663C17.7602 8.61357 17.7285 8.91655 17.8955 9.12295Z" fill="#D33234"/>
</svg>
