<svg width="111" height="137" viewBox="0 0 111 137" fill="none" xmlns="http://www.w3.org/2000/svg">
<path d="M2 133V60H104L2 133Z" fill="#C92123" stroke="white" stroke-width="4"/>
<path d="M95.6523 0H102V102H0V0H95.6523Z" fill="#C92123"/>
<path fill-rule="evenodd" clip-rule="evenodd" d="M65.7003 61.6905V61.5754C65.7285 61.2718 65.8327 60.9802 66.0032 60.7274C66.1411 60.5322 66.3135 60.3639 66.5119 60.2307C66.6473 60.1383 66.7914 60.0592 66.942 59.9945L69.1891 59.0435C69.2861 59.0011 69.3406 58.9466 69.3466 58.8921C69.36 58.8549 69.36 58.8142 69.3466 58.777L68.9832 57.9715C68.9697 57.9378 68.9445 57.9101 68.9123 57.8934C68.88 57.8767 68.8429 57.8722 68.8076 57.8806C68.7533 57.8905 68.7005 57.9067 68.6501 57.9291L66.627 58.8376C66.2287 59.0193 65.8736 59.2836 65.5852 59.6129C65.3238 59.9107 65.1186 60.2534 64.9795 60.6244C64.8653 60.9426 64.794 61.2747 64.7675 61.6117C64.7302 61.9901 64.712 62.3702 64.713 62.7504C64.7068 63.1229 64.7271 63.4953 64.7736 63.8649C64.8087 64.2401 64.907 64.6067 65.0643 64.9491C65.2131 65.2756 65.4373 65.5621 65.7185 65.785C65.9431 65.9547 66.198 66.0801 66.4695 66.1545C66.6676 66.2048 66.8709 66.2312 67.0752 66.2332C67.4769 66.2382 67.8731 66.1402 68.2261 65.9485C68.5917 65.737 68.8899 65.4262 69.0862 65.0521C69.3246 64.5728 69.443 64.0428 69.4314 63.5076C69.4624 62.7956 69.2486 62.0945 68.8257 61.5209C68.6439 61.289 68.4111 61.1022 68.1453 60.9751C67.8795 60.848 67.5879 60.7839 67.2933 60.788C66.9653 60.7785 66.6409 60.858 66.3545 61.0181C66.0904 61.1773 65.8796 61.4113 65.7488 61.6905H65.7003ZM67.0934 65.1551C66.9776 65.1598 66.8623 65.137 66.757 65.0886C66.6518 65.0402 66.5595 64.9675 66.4877 64.8764C66.3592 64.682 66.2782 64.4599 66.2515 64.2283C66.2219 63.9852 66.2097 63.7403 66.2151 63.4954C66.2106 63.2542 66.2268 63.0131 66.2636 62.7747C66.293 62.5568 66.374 62.3492 66.4998 62.169C66.5715 62.0783 66.664 62.0062 66.7694 61.9587C66.8748 61.9113 66.9901 61.8899 67.1055 61.8964C67.2213 61.8916 67.3366 61.9144 67.4419 61.9628C67.5472 62.0113 67.6395 62.084 67.7112 62.175C67.8416 62.3641 67.9228 62.5827 67.9475 62.811C67.9775 63.05 67.9896 63.291 67.9838 63.5318C67.9841 63.7767 67.9699 64.0214 67.9414 64.2647C67.9171 64.497 67.8314 64.7186 67.6931 64.9067C67.6211 64.9941 67.5288 65.0624 67.4242 65.1057C67.3197 65.149 67.2061 65.166 67.0934 65.1551Z" fill="white"/>
<path fill-rule="evenodd" clip-rule="evenodd" d="M53.6773 65.9851C53.7212 65.9946 53.7666 65.9946 53.8105 65.9851C53.8509 65.9851 53.8752 65.9366 53.8832 65.8397L53.9923 62.3993C54.0468 62.5992 54.1073 62.7991 54.1679 63.005C54.2285 63.211 54.2951 63.4169 54.3557 63.6107L54.9311 65.2279C54.9614 65.3006 54.9917 65.343 55.028 65.3491C55.0661 65.355 55.105 65.355 55.1431 65.3491H55.7488C55.789 65.355 55.8298 65.355 55.8699 65.3491C55.9152 65.3239 55.9497 65.2829 55.9668 65.234L56.5725 63.6168L56.7664 63.0111C56.833 62.793 56.8875 62.5931 56.942 62.4054L57.0268 65.8458C57.0268 65.9306 57.0268 65.9851 57.0935 65.9972C57.1394 66.007 57.1868 66.007 57.2328 65.9972H57.9596C58.0747 65.9972 58.1292 65.9972 58.1474 65.9548C58.1608 65.9176 58.1608 65.8769 58.1474 65.8397L57.893 60.8427C57.893 60.7518 57.893 60.6973 57.8203 60.6912C57.7787 60.6793 57.7347 60.6793 57.6931 60.6912H56.7845C56.7487 60.6827 56.7114 60.6827 56.6755 60.6912C56.6271 60.6912 56.5968 60.7397 56.5725 60.8003L55.7306 63.0716C55.6761 63.2412 55.6155 63.429 55.561 63.6773C55.5065 63.9257 55.4581 64.0953 55.4338 64.2346C55.4338 64.1135 55.3733 63.9317 55.3127 63.6895C55.2521 63.4472 55.1976 63.2594 55.1431 63.0838L54.3254 60.8003C54.3254 60.7336 54.2709 60.6973 54.2285 60.6912C54.1903 60.6859 54.1516 60.6859 54.1134 60.6912H53.2048C53.1654 60.6791 53.1232 60.6791 53.0837 60.6912C53.0352 60.6912 53.005 60.7579 53.005 60.8427L52.7082 65.8397C52.6979 65.8774 52.6979 65.9171 52.7082 65.9548C52.7082 65.9548 52.793 66.0032 52.902 66.0032L53.6773 65.9851Z" fill="white"/>
<path fill-rule="evenodd" clip-rule="evenodd" d="M63.4955 63.7377C63.5266 63.7428 63.5583 63.7411 63.5886 63.7327C63.619 63.7243 63.6471 63.7095 63.6712 63.6893C63.7196 63.6529 63.7439 63.5499 63.7439 63.3925C63.7439 63.235 63.7439 63.0836 63.7439 62.8958C63.7282 62.692 63.6978 62.4895 63.653 62.2901C63.5869 62.0002 63.4809 61.721 63.338 61.4603C63.1954 61.1957 62.9867 60.9724 62.7323 60.8122C62.3991 60.6274 62.0231 60.5334 61.6421 60.5396C61.3035 60.529 60.9674 60.6005 60.6625 60.7482C60.3576 60.8959 60.0931 61.1153 59.8916 61.3876C59.465 62.0121 59.2524 62.7581 59.2859 63.5136C59.2835 63.761 59.3017 64.0082 59.3404 64.2526C59.3895 64.5656 59.4898 64.8685 59.6372 65.149C59.8089 65.4627 60.0621 65.7243 60.3701 65.9061C60.7853 66.1337 61.2536 66.2466 61.7269 66.2332C62.0414 66.2338 62.3547 66.1951 62.6596 66.1181C62.9356 66.0598 63.1998 65.9554 63.441 65.8092C63.484 65.7803 63.5245 65.7479 63.5621 65.7123C63.5792 65.6935 63.5923 65.6715 63.6006 65.6476C63.609 65.6237 63.6123 65.5983 63.6106 65.573V65.5306C63.6106 65.5306 63.6106 65.4942 63.5803 65.47L63.3138 64.8643C63.3044 64.8426 63.2922 64.8222 63.2775 64.8037C63.252 64.795 63.2242 64.795 63.1987 64.8037C63.1589 64.7947 63.1175 64.7947 63.0776 64.8037L62.908 64.8764C62.7697 64.9417 62.6257 64.9944 62.4779 65.0339C62.2677 65.0962 62.049 65.1248 61.8298 65.1187C61.656 65.1349 61.4809 65.1086 61.3194 65.0421C61.158 64.9757 61.0152 64.871 60.9031 64.7371C60.7155 64.4502 60.6262 64.1101 60.6487 63.768L63.4955 63.7377ZM60.6003 62.7262C60.6099 62.4148 60.6974 62.1108 60.8547 61.8419C60.9282 61.735 61.0283 61.6491 61.1451 61.5928C61.262 61.5365 61.3915 61.5117 61.5209 61.5208C61.6112 61.5155 61.7017 61.5283 61.787 61.5585C61.8723 61.5887 61.9507 61.6356 62.0176 61.6965C62.1423 61.8305 62.2227 61.9997 62.2478 62.1811C62.2675 62.2464 62.2817 62.3132 62.2902 62.3809C62.2902 62.4657 62.2902 62.5869 62.2902 62.7322L60.6003 62.7262Z" fill="white"/>
<path fill-rule="evenodd" clip-rule="evenodd" d="M74.5376 63.7922C74.6019 63.7966 74.6658 63.7796 74.7193 63.7437C74.7678 63.7074 74.786 63.6044 74.786 63.4469C74.786 63.2895 74.786 63.138 74.786 62.9503C74.7688 62.7362 74.7364 62.5237 74.6891 62.3143C74.6269 62.0242 74.5228 61.7446 74.3801 61.4845C74.2349 61.2217 74.0268 60.9991 73.7744 60.8364C73.3054 60.5913 72.7655 60.5177 72.2479 60.6283C71.7304 60.7389 71.2677 61.0267 70.9398 61.4421C70.522 62.0707 70.3103 62.8137 70.3341 63.5681C70.329 63.8174 70.3452 64.0666 70.3825 64.3131C70.4348 64.6262 70.537 64.9289 70.6854 65.2095C70.8553 65.5246 71.1089 65.7866 71.4183 65.9667C71.8314 66.1933 72.2981 66.3043 72.769 66.2877C73.0851 66.2873 73.4001 66.2507 73.7078 66.1787C73.9847 66.1201 74.2491 66.0135 74.4892 65.8637C74.5349 65.8387 74.5759 65.8059 74.6103 65.7668C74.6406 65.7284 74.6595 65.6822 74.6648 65.6335C74.6704 65.6179 74.6704 65.6007 74.6648 65.5851V65.5306L74.3983 64.9249C74.3922 64.9001 74.3771 64.8785 74.3559 64.8643C74.332 64.859 74.3072 64.859 74.2832 64.8643C74.243 64.8602 74.2024 64.8602 74.1621 64.8643L73.9925 64.943C73.8523 65.0054 73.7087 65.06 73.5625 65.1066C73.3507 65.1607 73.1329 65.1871 72.9144 65.1853C72.7408 65.199 72.5664 65.1715 72.4054 65.1052C72.2444 65.0389 72.1013 64.9356 71.9876 64.8037C71.7962 64.516 71.7047 64.1734 71.7272 63.8285L74.5376 63.7922ZM71.6424 62.7746C71.6575 62.4652 71.7469 62.164 71.9028 61.8964C71.9777 61.7905 72.0779 61.705 72.1943 61.6479C72.3107 61.5908 72.4396 61.5637 72.5691 61.5693C72.6598 61.5651 72.7504 61.579 72.8357 61.6102C72.921 61.6414 72.9992 61.6893 73.0658 61.751C73.1903 61.8835 73.2726 62.0501 73.302 62.2295C73.302 62.2719 73.302 62.3446 73.302 62.4294C73.3086 62.5464 73.3086 62.6637 73.302 62.7807L71.6424 62.7746Z" fill="white"/>
<path fill-rule="evenodd" clip-rule="evenodd" d="M78.8078 61.8539V65.9545C78.7929 65.9935 78.7929 66.0367 78.8078 66.0757C78.8451 66.0886 78.8856 66.0886 78.9229 66.0757H79.9889C80.0094 66.0877 80.0333 66.0927 80.0569 66.09C80.0805 66.0872 80.1026 66.0768 80.1197 66.0603C80.1369 66.0439 80.1482 66.0223 80.1519 65.9988C80.1556 65.9753 80.1516 65.9513 80.1404 65.9303V60.903C80.143 60.8624 80.1324 60.822 80.1101 60.7879C80.1101 60.7879 80.0495 60.7879 79.995 60.7879H76.6818C76.6405 60.7745 76.596 60.7745 76.5546 60.7879C76.5397 60.8269 76.5397 60.87 76.5546 60.909V61.3997C76.5546 61.6177 76.5546 61.9145 76.5546 62.29C76.5546 62.6595 76.5546 63.029 76.5062 63.3985C76.4981 63.6848 76.4698 63.9702 76.4214 64.2525C76.3946 64.4775 76.2994 64.6889 76.1488 64.8582C76.0256 64.9822 75.8668 65.0648 75.6945 65.0944L75.5128 65.1368C75.4721 65.1395 75.4326 65.152 75.3977 65.1732C75.3614 65.1732 75.3553 65.2398 75.3977 65.3185L75.6037 66.112C75.6118 66.1544 75.6306 66.194 75.6582 66.2271C75.7068 66.2642 75.7667 66.2834 75.8278 66.2816C75.981 66.2787 76.1334 66.2584 76.2821 66.221C76.5191 66.1642 76.7418 66.0591 76.9362 65.9121C77.2058 65.7094 77.4152 65.4373 77.5419 65.1247C77.6611 64.7834 77.7423 64.4299 77.7842 64.0708C77.8437 63.6693 77.8821 63.2649 77.8993 62.8594C77.8993 62.4839 77.8993 62.1871 77.8993 61.969V61.8236L78.8078 61.8539Z" fill="white"/>
<path fill-rule="evenodd" clip-rule="evenodd" d="M83.4898 66.1244C83.7998 66.1359 84.1101 66.1177 84.4165 66.0699C84.7364 66.0223 85.04 65.8976 85.3009 65.7065C85.5185 65.5288 85.6821 65.2938 85.7733 65.0281C85.8414 64.8127 85.8742 64.5877 85.8702 64.3618C85.8721 64.1337 85.8373 63.9067 85.7673 63.6895C85.6817 63.4553 85.5379 63.2469 85.3493 63.0838C85.1199 62.8926 84.8441 62.7652 84.5498 62.7143C84.2556 62.6653 83.9577 62.641 83.6594 62.6416H83.0537V60.7458C83.0537 60.6731 83.0537 60.6247 82.9932 60.6126C82.9553 60.6038 82.9159 60.6038 82.8781 60.6126L82.0361 60.7761C81.9271 60.7898 81.8208 60.8204 81.7212 60.8669C81.7023 60.8828 81.6886 60.9041 81.6822 60.9279C81.6757 60.9517 81.6766 60.9769 81.6848 61.0002V65.9488C81.6695 65.9898 81.6695 66.0349 81.6848 66.076C81.7262 66.089 81.7706 66.089 81.812 66.076L83.4898 66.1244ZM83.0537 63.7016H83.7139C83.8148 63.6949 83.9159 63.6949 84.0168 63.7016C84.1444 63.7249 84.2612 63.7886 84.3499 63.8833C84.405 63.9436 84.4474 64.0143 84.4744 64.0914C84.5015 64.1684 84.5127 64.2501 84.5074 64.3315C84.5074 64.6405 84.3863 64.8282 84.1985 64.9009C84.0042 64.9695 83.7986 65.0003 83.5928 64.9918H83.0537V63.7016Z" fill="white"/>
<path fill-rule="evenodd" clip-rule="evenodd" d="M24.5854 56.106L25.8331 59.8007H20.3818C22.3443 64.9674 33.9192 63.3986 40.1519 63.4713C33.1258 62.5991 31.7024 57.5415 30.9695 56.1302L24.5854 56.106Z" fill="white"/>
<path fill-rule="evenodd" clip-rule="evenodd" d="M37.4565 38.474H37.9956C38.3712 38.474 38.3893 38.6072 38.3893 38.9343C38.3832 39.1033 38.3995 39.2724 38.4378 39.4371H39.0071V39.3704C38.8981 39.328 38.8981 39.2432 38.8981 38.8798C38.8981 38.5164 38.7951 38.3468 38.5953 38.2741C38.7138 38.2258 38.8141 38.1412 38.8815 38.0323C38.949 37.9235 38.9803 37.7961 38.9708 37.6684C38.9732 37.5705 38.9545 37.4732 38.9161 37.3831C38.8776 37.293 38.8203 37.2122 38.748 37.1462C38.6756 37.0802 38.5899 37.0304 38.4967 37.0003C38.4035 36.9703 38.3049 36.9606 38.2076 36.9719H36.9478V39.3947H37.4505L37.4565 38.474ZM37.4565 37.3958H38.0622C38.1089 37.3896 38.1563 37.3936 38.2011 37.4077C38.246 37.4218 38.2872 37.4456 38.3219 37.4774C38.3566 37.5091 38.3838 37.5482 38.4018 37.5916C38.4197 37.6351 38.4279 37.682 38.4257 37.729C38.4257 37.9713 38.2924 38.0621 38.0259 38.0621H37.4202L37.4565 37.3958Z" fill="white"/>
<path fill-rule="evenodd" clip-rule="evenodd" d="M35.8091 38.1894C35.8078 37.9171 35.8607 37.6473 35.9647 37.3957C36.0687 37.144 36.2217 36.9156 36.4148 36.7236C36.6052 36.5301 36.8325 36.3768 37.0833 36.2728C37.334 36.1688 37.6031 36.1161 37.8745 36.1179C38.1468 36.1166 38.4166 36.1695 38.6683 36.2735C38.9199 36.3775 39.1483 36.5305 39.3403 36.7236C39.5338 36.914 39.6871 37.1413 39.7911 37.3921C39.8952 37.6428 39.9478 37.9119 39.946 38.1833C39.946 38.7311 39.7284 39.2565 39.3411 39.6438C38.9537 40.0312 38.4284 40.2488 37.8806 40.2488C37.3328 40.2488 36.8074 40.0312 36.4201 39.6438C36.0327 39.2565 35.8151 38.7311 35.8151 38.1833L35.8091 38.1894ZM36.0574 36.3723C35.8149 36.6086 35.6224 36.8912 35.4913 37.2033C35.3602 37.5155 35.2932 37.8508 35.2942 38.1894C35.2902 38.8737 35.5582 39.5316 36.0393 40.0184C36.5203 40.5051 37.175 40.7808 37.8594 40.7848C38.5437 40.7888 39.2016 40.5208 39.6883 40.0398C40.1751 39.5587 40.4508 38.904 40.4548 38.2197C40.464 37.7064 40.3198 37.2019 40.0407 36.771C39.7617 36.3401 39.3604 36.0022 38.8882 35.8005C38.416 35.5989 37.8944 35.5428 37.3902 35.6392C36.8859 35.7357 36.4218 35.9804 36.0574 36.342V36.3723Z" fill="white"/>
<path fill-rule="evenodd" clip-rule="evenodd" d="M38.7649 54.5131L22.411 54.4343L23.5619 58.1291H19.6127L17.311 50.7395H20.1881H21.0846L24.6582 39.6492H22.2354L21.0785 35.9604H25.8211H31.0726L35.694 50.7759H37.6141L38.7649 54.5131ZM25.0034 50.7577L31.7449 50.7941L28.4196 40.1458L25.0034 50.7577Z" fill="white"/>
<path fill-rule="evenodd" clip-rule="evenodd" d="M66.1788 41.4418C67.1427 39.4824 68.7708 37.9288 70.7732 37.0576C72.7755 36.1865 75.0221 36.0544 77.1127 36.6849C79.2033 37.3154 81.0023 38.6675 82.1891 40.5005C83.376 42.3334 83.8736 44.5282 83.5935 46.6938C83.3133 48.8593 82.2736 50.8552 80.6594 52.3258C79.0452 53.7964 76.9614 54.6462 74.7791 54.724C72.5969 54.8017 70.4579 54.1023 68.7431 52.7503C67.0284 51.3983 65.8492 49.4815 65.4157 47.3413C64.7654 48.4115 63.8528 49.298 62.7643 49.917C61.6757 50.5359 60.4473 50.8669 59.1951 50.8786H57.8081V54.6885H54.1193V50.8726H52.6535C51.9015 50.8636 51.1555 50.7369 50.4427 50.497C51.021 52.7677 50.7129 55.1733 49.5811 57.225C48.4492 59.2766 46.5787 60.8203 44.3496 61.5422C42.1204 62.2642 39.7 62.1103 37.5803 61.1117C35.4607 60.1131 33.8007 58.3449 32.938 56.1664H37.1779C37.7967 56.9404 38.612 57.5341 39.5386 57.8855C40.4652 58.2369 41.4691 58.3332 42.4455 58.1642C43.422 57.9953 44.3352 57.5674 45.0899 56.9251C45.8446 56.2828 46.413 55.4497 46.7359 54.5128L40.5819 54.4765L39.425 50.7817L46.6934 50.8181C46.3574 49.8904 45.779 49.0698 45.0185 48.4413C44.2579 47.8129 43.3429 47.3996 42.3686 47.2444C41.3943 47.0892 40.3962 47.1978 39.478 47.5589C38.5599 47.92 37.7552 48.5204 37.1476 49.2977L35.9362 45.3607C37.2826 44.3383 38.8849 43.7069 40.5668 43.5359C42.2488 43.3649 43.9453 43.661 45.4699 44.3916C45.4283 44.0743 45.408 43.7546 45.4094 43.4346C45.4122 42.1396 45.7592 40.8686 46.4148 39.7519H44.2828L43.1259 36.0571L52.8171 36.0995H59.1285H59.922C61.3686 36.2756 62.7319 36.8722 63.8429 37.8153C64.954 38.7584 65.764 40.0066 66.1728 41.4055L66.1788 41.4418ZM68.8984 45.4758C68.8937 46.5692 69.2132 47.6396 69.8166 48.5515C70.42 49.4634 71.2802 50.176 72.2885 50.5991C73.2967 51.0223 74.4078 51.137 75.4813 50.9288C76.5548 50.7206 77.5425 50.1988 78.3195 49.4295C79.0965 48.6601 79.6279 47.6776 79.8467 46.6062C80.0654 45.5349 79.9617 44.4227 79.5485 43.4103C79.1353 42.3979 78.4312 41.5307 77.5253 40.9183C76.6194 40.306 75.5522 39.976 74.4588 39.97C73.7295 39.9668 73.0068 40.1078 72.3323 40.3851C71.6577 40.6623 71.0447 41.0702 70.5285 41.5853C70.0122 42.1005 69.603 42.7126 69.3243 43.3865C69.0456 44.0604 68.9029 44.7828 68.9045 45.5121L68.8984 45.4758ZM57.8565 39.8064V47.1778H59.1103C60.0886 47.1778 61.0269 46.7892 61.7186 46.0974C62.4104 45.4056 62.799 44.4674 62.799 43.4891C62.799 42.5108 62.4104 41.5725 61.7186 40.8808C61.0269 40.189 60.0886 39.8004 59.1103 39.8004L57.8565 39.8064ZM54.1315 47.1657L54.1739 39.7882H52.805C52.3206 39.7863 51.8405 39.8797 51.3922 40.0632C50.9439 40.2468 50.5362 40.5168 50.1922 40.8579C49.4976 41.5469 49.1051 42.4835 49.1011 43.4618C49.0971 44.4401 49.4819 45.38 50.1708 46.0746C50.8597 46.7692 51.7964 47.1617 52.7747 47.1657H54.1315Z" fill="white"/>
<rect x="2" y="2" width="98" height="98" stroke="white" stroke-width="4"/>
</svg>
