<svg width="21" height="21" viewBox="0 0 21 21" fill="none" xmlns="http://www.w3.org/2000/svg">
<path d="M16.4297 12.3164C16.7344 12.3164 17.0312 12.375 17.3203 12.4922C17.6094 12.6094 17.8633 12.7773 18.082 12.9961L20.3203 15.2344C20.5391 15.4531 20.707 15.707 20.8242 15.9961C20.9414 16.2852 21 16.582 21 16.8867C21 17.1914 20.9414 17.4883 20.8242 17.7773C20.707 18.0664 20.5391 18.3203 20.3203 18.5391L19.1953 19.6641C18.7031 20.1484 18.1445 20.4922 17.5195 20.6953C16.8945 20.8984 16.2461 21 15.5742 21C14.7383 21 13.875 20.8711 12.9844 20.6133C12.0938 20.3555 11.2031 19.9883 10.3125 19.5117C9.42188 19.0352 8.55078 18.4805 7.69922 17.8477C6.84766 17.2148 6.03906 16.5156 5.27344 15.75C4.50781 14.9844 3.80469 14.1758 3.16406 13.3242C2.52344 12.4727 1.96484 11.6016 1.48828 10.7109C1.01172 9.82031 0.648438 8.92969 0.398438 8.03906C0.148438 7.14844 0.015625 6.28125 0 5.4375C0 4.83594 0.0507812 4.32422 0.152344 3.90234C0.253906 3.48047 0.410156 3.09766 0.621094 2.75391C0.832031 2.41016 1.08984 2.07812 1.39453 1.75781C1.69922 1.4375 2.05469 1.07812 2.46094 0.679688C2.67969 0.460938 2.93359 0.292969 3.22266 0.175781C3.51172 0.0585938 3.80859 0 4.11328 0C4.41797 0 4.71484 0.0585938 5.00391 0.175781C5.29297 0.292969 5.54688 0.460938 5.76562 0.679688L8.00391 2.91797C8.22266 3.13672 8.39062 3.39062 8.50781 3.67969C8.625 3.96875 8.68359 4.26562 8.68359 4.57031C8.68359 4.875 8.63281 5.14453 8.53125 5.37891C8.42969 5.61328 8.30469 5.83203 8.15625 6.03516C8.00781 6.23828 7.84375 6.41797 7.66406 6.57422C7.48438 6.73047 7.32031 6.88672 7.17188 7.04297C7.02344 7.19922 6.89453 7.34375 6.78516 7.47656C6.67578 7.60938 6.625 7.76172 6.63281 7.93359C6.63281 8.16016 6.71484 8.35547 6.87891 8.51953L12.4805 14.1211C12.6445 14.2852 12.8398 14.3672 13.0664 14.3672C13.2305 14.3672 13.3828 14.3164 13.5234 14.2148C13.6641 14.1133 13.8086 13.9883 13.957 13.8398C14.1055 13.6914 14.2578 13.5273 14.4141 13.3477C14.5703 13.168 14.75 13.0039 14.9531 12.8555C15.1562 12.707 15.3711 12.5781 15.5977 12.4688C15.8242 12.3594 16.1016 12.3086 16.4297 12.3164ZM15.5977 19.5C16.0664 19.5 16.4609 19.457 16.7812 19.3711C17.1016 19.2852 17.3906 19.1523 17.6484 18.9727C17.9062 18.793 18.1602 18.582 18.4102 18.3398C18.6602 18.0977 18.9414 17.8125 19.2539 17.4844C19.418 17.3203 19.5 17.125 19.5 16.8984C19.5 16.6641 19.418 16.4648 19.2539 16.3008L17.0156 14.0625C16.8516 13.8984 16.6523 13.8164 16.418 13.8164C16.2539 13.8164 16.1016 13.8672 15.9609 13.9688C15.8203 14.0703 15.6758 14.1953 15.5273 14.3438C15.3789 14.4922 15.2266 14.6562 15.0703 14.8359C14.9141 15.0156 14.7383 15.1797 14.543 15.3281C14.3477 15.4766 14.1289 15.6055 13.8867 15.7148C13.6445 15.8242 13.3711 15.875 13.0664 15.8672C12.7539 15.8672 12.457 15.8086 12.1758 15.6914C11.8945 15.5742 11.6406 15.4023 11.4141 15.1758L5.82422 9.58594C5.60547 9.36719 5.4375 9.11719 5.32031 8.83594C5.20312 8.55469 5.14062 8.25391 5.13281 7.93359C5.13281 7.62891 5.18359 7.35938 5.28516 7.125C5.38672 6.89062 5.51172 6.67188 5.66016 6.46875C5.80859 6.26562 5.97266 6.08984 6.15234 5.94141C6.33203 5.79297 6.49609 5.63672 6.64453 5.47266C6.79297 5.30859 6.92188 5.16406 7.03125 5.03906C7.14062 4.91406 7.19141 4.75781 7.18359 4.57031C7.18359 4.34375 7.10156 4.14844 6.9375 3.98438L4.69922 1.74609C4.53516 1.58203 4.33984 1.5 4.11328 1.5C3.87891 1.5 3.67969 1.58203 3.51562 1.74609C3.19531 2.06641 2.91016 2.34766 2.66016 2.58984C2.41016 2.83203 2.19922 3.08203 2.02734 3.33984C1.85547 3.59766 1.72656 3.89062 1.64062 4.21875C1.55469 4.54688 1.50781 4.94141 1.5 5.40234C1.5 6.14453 1.62109 6.91406 1.86328 7.71094C2.10547 8.50781 2.44141 9.30469 2.87109 10.1016C3.30078 10.8984 3.80859 11.6875 4.39453 12.4688C4.98047 13.25 5.625 13.9844 6.32812 14.6719C7.03125 15.3594 7.76562 16 8.53125 16.5938C9.29688 17.1875 10.082 17.6992 10.8867 18.1289C11.6914 18.5586 12.4922 18.8945 13.2891 19.1367C14.0859 19.3789 14.8555 19.5 15.5977 19.5Z" fill="#D33234"/>
</svg>
